<mxfile host="app.diagrams.net" agent="Mozilla/5.0 (Windows NT 10.0; Win64; x64) AppleWebKit/537.36 (KHTML, like Gecko) Chrome/132.0.0.0 Safari/537.36 Edg/132.0.0.0" version="26.0.11">
  <diagram name="Page-1" id="G4WgWDZQkPEzX7zin5CX">
    <mxGraphModel dx="1097" dy="595" grid="1" gridSize="10" guides="1" tooltips="1" connect="1" arrows="1" fold="1" page="1" pageScale="1" pageWidth="850" pageHeight="1100" math="0" shadow="0">
      <root>
        <mxCell id="0" />
        <mxCell id="1" parent="0" />
        <mxCell id="VQCnjo5LyI0x4Tr4wdqy-1" value="" style="endArrow=none;dashed=1;html=1;dashPattern=1 3;strokeWidth=2;rounded=0;" edge="1" parent="1">
          <mxGeometry width="50" height="50" relative="1" as="geometry">
            <mxPoint x="250" y="125.47" as="sourcePoint" />
            <mxPoint x="470" y="125.47" as="targetPoint" />
          </mxGeometry>
        </mxCell>
        <mxCell id="VQCnjo5LyI0x4Tr4wdqy-2" value="Mechsys Auto" style="text;html=1;align=center;verticalAlign=middle;whiteSpace=wrap;rounded=0;fontStyle=1;fontSize=14;" vertex="1" parent="1">
          <mxGeometry x="470" y="105.47" width="110" height="30" as="geometry" />
        </mxCell>
        <mxCell id="VQCnjo5LyI0x4Tr4wdqy-3" value="Internal Services" style="text;html=1;align=center;verticalAlign=middle;whiteSpace=wrap;rounded=0;fontStyle=1" vertex="1" parent="1">
          <mxGeometry x="270" y="155.47" width="130" height="30" as="geometry" />
        </mxCell>
        <mxCell id="VQCnjo5LyI0x4Tr4wdqy-4" value="" style="endArrow=none;dashed=1;html=1;dashPattern=1 3;strokeWidth=2;rounded=0;" edge="1" parent="1">
          <mxGeometry width="50" height="50" relative="1" as="geometry">
            <mxPoint x="250" y="485.47" as="sourcePoint" />
            <mxPoint x="250" y="125.47" as="targetPoint" />
          </mxGeometry>
        </mxCell>
        <mxCell id="VQCnjo5LyI0x4Tr4wdqy-5" value="" style="endArrow=none;dashed=1;html=1;dashPattern=1 3;strokeWidth=2;rounded=0;" edge="1" parent="1">
          <mxGeometry width="50" height="50" relative="1" as="geometry">
            <mxPoint x="730" y="485.47" as="sourcePoint" />
            <mxPoint x="730" y="125.47" as="targetPoint" />
          </mxGeometry>
        </mxCell>
        <mxCell id="VQCnjo5LyI0x4Tr4wdqy-6" value="" style="endArrow=none;dashed=1;html=1;dashPattern=1 3;strokeWidth=2;rounded=0;" edge="1" parent="1">
          <mxGeometry width="50" height="50" relative="1" as="geometry">
            <mxPoint x="590" y="125.47" as="sourcePoint" />
            <mxPoint x="730" y="125.47" as="targetPoint" />
          </mxGeometry>
        </mxCell>
        <mxCell id="VQCnjo5LyI0x4Tr4wdqy-7" value="Stakeholders Managment" style="text;html=1;align=center;verticalAlign=middle;whiteSpace=wrap;rounded=0;" vertex="1" parent="1">
          <mxGeometry x="335" y="205.47" width="310" height="30" as="geometry" />
        </mxCell>
        <mxCell id="VQCnjo5LyI0x4Tr4wdqy-8" value="Software Product Managment" style="text;html=1;align=center;verticalAlign=middle;whiteSpace=wrap;rounded=0;" vertex="1" parent="1">
          <mxGeometry x="405" y="245.47" width="185" height="30" as="geometry" />
        </mxCell>
        <mxCell id="VQCnjo5LyI0x4Tr4wdqy-9" value="Tools Managment" style="text;html=1;align=center;verticalAlign=middle;whiteSpace=wrap;rounded=0;" vertex="1" parent="1">
          <mxGeometry x="405" y="285.47" width="160" height="30" as="geometry" />
        </mxCell>
        <mxCell id="VQCnjo5LyI0x4Tr4wdqy-11" value="&lt;b&gt;&lt;font style=&quot;font-size: 13px;&quot;&gt;warehouse&lt;/font&gt;&lt;/b&gt;" style="rounded=0;whiteSpace=wrap;html=1;" vertex="1" parent="1">
          <mxGeometry x="430" y="395.47" width="120" height="60" as="geometry" />
        </mxCell>
        <mxCell id="VQCnjo5LyI0x4Tr4wdqy-12" value="" style="endArrow=none;dashed=1;html=1;dashPattern=1 3;strokeWidth=2;rounded=0;" edge="1" parent="1">
          <mxGeometry width="50" height="50" relative="1" as="geometry">
            <mxPoint x="250" y="485.47" as="sourcePoint" />
            <mxPoint x="730" y="485.47" as="targetPoint" />
          </mxGeometry>
        </mxCell>
        <mxCell id="VQCnjo5LyI0x4Tr4wdqy-13" value="" style="ellipse;whiteSpace=wrap;html=1;aspect=fixed;" vertex="1" parent="1">
          <mxGeometry x="75" y="245.47" width="50" height="50" as="geometry" />
        </mxCell>
        <mxCell id="VQCnjo5LyI0x4Tr4wdqy-14" value="Client" style="text;html=1;align=center;verticalAlign=middle;whiteSpace=wrap;rounded=0;" vertex="1" parent="1">
          <mxGeometry x="70" y="295.47" width="60" height="30" as="geometry" />
        </mxCell>
        <mxCell id="VQCnjo5LyI0x4Tr4wdqy-16" value="Sales and delevery managment" style="text;html=1;align=center;verticalAlign=middle;whiteSpace=wrap;rounded=0;" vertex="1" parent="1">
          <mxGeometry x="410" y="330" width="160" height="30" as="geometry" />
        </mxCell>
        <mxCell id="VQCnjo5LyI0x4Tr4wdqy-17" value="" style="endArrow=classic;html=1;rounded=0;" edge="1" parent="1">
          <mxGeometry width="50" height="50" relative="1" as="geometry">
            <mxPoint x="140" y="270" as="sourcePoint" />
            <mxPoint x="210" y="270" as="targetPoint" />
          </mxGeometry>
        </mxCell>
      </root>
    </mxGraphModel>
  </diagram>
</mxfile>
